<svg width="20" height="20" viewBox="0 0 20 20" fill="none" xmlns="http://www.w3.org/2000/svg">
<g clip-path="url(#clip0_2_573)">
<path d="M14.1665 2.50004H17.4998C17.7209 2.50004 17.9328 2.58784 18.0891 2.74412C18.2454 2.9004 18.3332 3.11236 18.3332 3.33337V16.6667C18.3332 16.8877 18.2454 17.0997 18.0891 17.256C17.9328 17.4122 17.7209 17.5 17.4998 17.5H2.49984C2.27882 17.5 2.06686 17.4122 1.91058 17.256C1.7543 17.0997 1.6665 16.8877 1.6665 16.6667V3.33337C1.6665 3.11236 1.7543 2.9004 1.91058 2.74412C2.06686 2.58784 2.27882 2.50004 2.49984 2.50004H5.83317V0.833374H7.49984V2.50004H12.4998V0.833374H14.1665V2.50004ZM16.6665 9.16671H3.33317V15.8334H16.6665V9.16671ZM12.4998 4.16671H7.49984V5.83337H5.83317V4.16671H3.33317V7.50004H16.6665V4.16671H14.1665V5.83337H12.4998V4.16671ZM4.99984 10.8334H6.6665V12.5H4.99984V10.8334ZM9.1665 10.8334H10.8332V12.5H9.1665V10.8334ZM13.3332 10.8334H14.9998V12.5H13.3332V10.8334Z" fill="#4440F7"/>
</g>
<defs>
<clipPath id="clip0_2_573">
<rect width="20" height="20" fill="white"/>
</clipPath>
</defs>
</svg>
